<svg width="512" height="512" viewBox="0 0 512 512" fill="none" xmlns="http://www.w3.org/2000/svg">
<rect width="512" height="512" fill="#1C1C1C"/>
<path d="M27.6385 207.56H41.7185V281.672C41.7185 285.085 42.2305 287.261 43.2545 288.2C44.2785 289.139 45.5585 289.608 47.0945 289.608C48.8012 289.608 50.3798 289.437 51.8305 289.096C53.3665 288.755 54.6892 288.328 55.7985 287.816L57.8465 298.952C55.7985 299.805 53.3665 300.531 50.5505 301.128C47.7345 301.725 45.2172 302.024 42.9985 302.024C38.2198 302.024 34.4652 300.701 31.7345 298.056C29.0038 295.325 27.6385 291.571 27.6385 286.792V207.56ZM89.6905 302.28C84.3998 302.28 79.6638 301.384 75.4825 299.592C71.3012 297.715 67.6745 295.155 64.6025 291.912C61.6158 288.669 59.3118 285 57.6905 280.904C56.0692 276.723 55.2585 272.285 55.2585 267.592C55.2585 262.899 56.0692 258.461 57.6905 254.28C59.3118 250.099 61.6158 246.429 64.6025 243.272C67.6745 240.029 71.3012 237.512 75.4825 235.72C79.7492 233.843 84.4852 232.904 89.6905 232.904C94.8958 232.904 99.5892 233.843 103.771 235.72C108.037 237.512 111.664 240.029 114.651 243.272C117.722 246.429 120.069 250.099 121.69 254.28C123.312 258.461 124.123 262.899 124.123 267.592C124.123 272.285 123.312 276.723 121.69 280.904C120.069 285 117.722 288.669 114.651 291.912C111.664 295.155 108.037 297.715 103.771 299.592C99.5892 301.384 94.8958 302.28 89.6905 302.28ZM69.7225 267.72C69.7225 271.987 70.6185 275.827 72.4105 279.24C74.2025 282.653 76.5918 285.341 79.5785 287.304C82.5652 289.267 85.9358 290.248 89.6905 290.248C93.3598 290.248 96.6878 289.267 99.6745 287.304C102.747 285.256 105.179 282.525 106.971 279.112C108.763 275.613 109.659 271.773 109.659 267.592C109.659 263.325 108.763 259.485 106.971 256.072C105.179 252.659 102.747 249.971 99.6745 248.008C96.6878 245.96 93.3598 244.936 89.6905 244.936C85.9358 244.936 82.5652 245.96 79.5785 248.008C76.5918 250.056 74.2025 252.787 72.4105 256.2C70.6185 259.528 69.7225 263.368 69.7225 267.72ZM232.611 301H218.531V263.496C218.531 257.267 217.507 252.701 215.459 249.8C213.41 246.899 210.424 245.448 206.499 245.448C202.573 245.448 198.904 246.941 195.491 249.928C192.162 252.829 189.816 256.627 188.451 261.32V301H174.37V263.496C174.37 257.267 173.346 252.701 171.299 249.8C169.25 246.899 166.306 245.448 162.466 245.448C158.541 245.448 154.872 246.899 151.458 249.8C148.13 252.701 145.741 256.499 144.29 261.192V301H130.21V234.056H143.01V247.496C145.656 242.803 149.112 239.219 153.378 236.744C157.73 234.184 162.68 232.904 168.226 232.904C173.773 232.904 178.125 234.355 181.283 237.256C184.525 240.157 186.53 243.784 187.299 248.136C190.2 243.187 193.741 239.432 197.923 236.872C202.189 234.227 207.053 232.904 212.515 232.904C216.44 232.904 219.725 233.629 222.37 235.08C225.016 236.531 227.064 238.536 228.515 241.096C229.965 243.571 230.989 246.472 231.587 249.8C232.269 253.043 232.611 256.499 232.611 260.168V301ZM272.772 302.28C267.566 302.28 262.83 301.384 258.564 299.592C254.382 297.715 250.756 295.197 247.684 292.04C244.612 288.797 242.222 285.128 240.516 281.032C238.894 276.851 238.084 272.413 238.084 267.72C238.084 261.405 239.534 255.645 242.436 250.44C245.337 245.149 249.39 240.925 254.596 237.768C259.801 234.525 265.902 232.904 272.9 232.904C279.897 232.904 285.913 234.525 290.948 237.768C296.068 240.925 300.036 245.107 302.852 250.312C305.668 255.517 307.076 261.107 307.076 267.08C307.076 268.104 307.033 269.085 306.948 270.024C306.862 270.877 306.777 271.603 306.692 272.2H253.06C253.316 276.125 254.382 279.581 256.26 282.568C258.222 285.469 260.697 287.773 263.684 289.48C266.67 291.101 269.87 291.912 273.284 291.912C277.038 291.912 280.58 290.973 283.908 289.096C287.321 287.219 289.625 284.744 290.82 281.672L302.852 285.128C301.401 288.371 299.182 291.315 296.196 293.96C293.294 296.52 289.838 298.568 285.828 300.104C281.817 301.555 277.465 302.28 272.772 302.28ZM252.676 262.856H293.124C292.868 259.016 291.758 255.645 289.796 252.744C287.918 249.757 285.486 247.453 282.5 245.832C279.598 244.125 276.356 243.272 272.772 243.272C269.273 243.272 266.03 244.125 263.044 245.832C260.142 247.453 257.753 249.757 255.876 252.744C253.998 255.645 252.932 259.016 252.676 262.856ZM414.561 301H400.48V263.496C400.48 257.267 399.456 252.701 397.409 249.8C395.36 246.899 392.374 245.448 388.449 245.448C384.523 245.448 380.854 246.941 377.44 249.928C374.112 252.829 371.766 256.627 370.4 261.32V301H356.32V263.496C356.32 257.267 355.296 252.701 353.248 249.8C351.2 246.899 348.256 245.448 344.416 245.448C340.491 245.448 336.822 246.899 333.408 249.8C330.08 252.701 327.691 256.499 326.24 261.192V301H312.16V234.056H324.96V247.496C327.606 242.803 331.062 239.219 335.328 236.744C339.68 234.184 344.63 232.904 350.176 232.904C355.723 232.904 360.075 234.355 363.232 237.256C366.475 240.157 368.48 243.784 369.248 248.136C372.15 243.187 375.691 239.432 379.872 236.872C384.139 234.227 389.003 232.904 394.465 232.904C398.39 232.904 401.675 233.629 404.32 235.08C406.966 236.531 409.014 238.536 410.465 241.096C411.915 243.571 412.939 246.472 413.536 249.8C414.219 253.043 414.561 256.499 414.561 260.168V301ZM454.466 302.28C449.175 302.28 444.439 301.384 440.258 299.592C436.076 297.715 432.45 295.155 429.378 291.912C426.391 288.669 424.087 285 422.466 280.904C420.844 276.723 420.034 272.285 420.034 267.592C420.034 262.899 420.844 258.461 422.466 254.28C424.087 250.099 426.391 246.429 429.378 243.272C432.45 240.029 436.076 237.512 440.258 235.72C444.524 233.843 449.26 232.904 454.466 232.904C459.671 232.904 464.364 233.843 468.546 235.72C472.812 237.512 476.439 240.029 479.426 243.272C482.498 246.429 484.844 250.099 486.465 254.28C488.087 258.461 488.898 262.899 488.898 267.592C488.898 272.285 488.087 276.723 486.465 280.904C484.844 285 482.498 288.669 479.426 291.912C476.439 295.155 472.812 297.715 468.546 299.592C464.364 301.384 459.671 302.28 454.466 302.28ZM434.498 267.72C434.498 271.987 435.394 275.827 437.186 279.24C438.978 282.653 441.367 285.341 444.354 287.304C447.34 289.267 450.711 290.248 454.466 290.248C458.135 290.248 461.463 289.267 464.45 287.304C467.522 285.256 469.954 282.525 471.746 279.112C473.538 275.613 474.434 271.773 474.434 267.592C474.434 263.325 473.538 259.485 471.746 256.072C469.954 252.659 467.522 249.971 464.45 248.008C461.463 245.96 458.135 244.936 454.466 244.936C450.711 244.936 447.34 245.96 444.354 248.008C441.367 250.056 438.978 252.787 437.186 256.2C435.394 259.528 434.498 263.368 434.498 267.72Z" fill="white"/>
</svg>
